<?xml version="1.0" standalone="no"?>
<!DOCTYPE svg PUBLIC "-//W3C//DTD SVG 20010904//EN"
 "http://www.w3.org/TR/2001/REC-SVG-20010904/DTD/svg10.dtd">
<svg version="1.0" xmlns="http://www.w3.org/2000/svg"
 width="1024.000000pt" height="1024.000000pt" viewBox="0 0 1024.000000 1024.000000"
 preserveAspectRatio="xMidYMid meet">
<metadata>
Created by potrace 1.14, written by Peter Selinger 2001-2017
</metadata>
<g transform="translate(0.000000,1024.000000) scale(0.100000,-0.100000)"
fill="#000000" stroke="none">
<path d="M5089 9730 c-98 -12 -239 -53 -370 -109 -64 -27 -143 -54 -174 -61
-102 -21 -176 15 -217 108 -11 23 -23 40 -27 37 -18 -11 -35 -105 -35 -192
l-1 -93 -27 0 c-52 0 -157 -50 -208 -100 -68 -66 -120 -177 -120 -257 l0 -33
-55 0 c-203 0 -313 117 -242 260 18 35 11 33 -49 -16 -88 -71 -141 -198 -131
-311 12 -126 72 -215 176 -261 l40 -19 -37 -36 c-43 -41 -100 -58 -162 -47
-47 9 -75 31 -100 80 l-18 35 -19 -40 c-14 -31 -18 -64 -18 -145 1 -95 3 -111
30 -165 34 -71 112 -151 177 -183 34 -17 48 -30 52 -50 3 -15 22 -119 41 -232
35 -201 81 -438 91 -472 3 -10 14 -18 25 -18 27 0 69 -23 97 -52 18 -20 25
-47 37 -144 8 -65 18 -129 20 -141 3 -13 1 -23 -4 -23 -5 0 -12 18 -16 40 -4
22 -11 41 -16 41 -5 1 -12 3 -16 4 -5 2 -18 6 -30 10 -13 4 -21 10 -19 14 3 4
-4 8 -15 8 -11 1 -32 8 -48 16 -23 12 -35 12 -63 2 -44 -15 -108 -54 -108 -65
0 -9 69 -44 147 -75 40 -16 41 -17 27 -43 -21 -40 -17 -92 11 -140 14 -24 22
-49 18 -55 -4 -6 0 -8 9 -4 17 6 58 -30 58 -51 0 -8 -18 -12 -48 -12 -26 0
-53 -5 -60 -12 -9 -9 -15 -9 -24 0 -9 9 -16 8 -32 -6 -20 -16 -20 -16 -6 3 8
11 16 22 17 24 1 2 9 -2 18 -9 10 -8 15 -9 15 -1 0 6 -4 11 -10 11 -5 0 -7 7
-4 15 4 8 1 15 -5 15 -6 0 -11 -4 -11 -10 0 -5 -4 -10 -10 -10 -5 0 -10 9 -10
20 0 11 -5 20 -12 20 -9 0 -9 3 0 12 7 7 12 17 12 22 0 8 -3 8 -8 1 -5 -7 -19
-5 -42 7 -19 9 -29 17 -22 18 6 0 12 4 12 9 0 6 -9 9 -19 8 -38 -3 -7 -91 65
-186 50 -67 136 -132 177 -135 14 0 23 -4 21 -7 -7 -12 84 -29 124 -24 25 3
43 0 49 -8 9 -11 33 -142 49 -262 8 -61 40 -149 59 -165 10 -8 15 -9 15 -2 0
6 -4 14 -10 17 -12 7 -13 25 -2 25 4 0 12 -11 18 -25 9 -18 9 -25 0 -29 -10
-4 70 -86 85 -86 6 0 10 -47 25 -295 l6 -100 -30 -18 c-46 -26 -95 -92 -87
-117 25 -80 165 -330 165 -296 0 5 -8 18 -17 29 -15 15 -18 40 -20 125 -1 58
3 115 8 125 7 12 7 22 0 31 -7 8 -7 31 -2 67 5 32 5 61 0 72 -6 9 -6 17 -2 17
5 0 13 -10 18 -22 6 -13 20 -24 33 -26 15 -2 22 -9 18 -17 -3 -8 1 -26 8 -40
11 -20 15 -22 19 -10 4 8 2 15 -3 15 -6 0 -10 9 -10 21 0 18 3 17 26 -10 21
-26 24 -34 14 -46 -14 -17 0 -21 16 -5 12 12 69 -47 69 -71 0 -7 9 -15 20 -18
27 -5 98 -78 90 -91 -4 -6 1 -17 11 -25 11 -7 15 -17 11 -21 -4 -5 -12 -2 -17
6 -7 11 -9 7 -7 -14 3 -38 -15 -43 -48 -11 -20 18 -23 25 -12 25 9 0 19 9 22
20 4 11 11 18 16 15 5 -4 9 1 9 10 0 11 -5 15 -15 11 -8 -3 -15 -1 -15 4 0 6
5 10 11 10 5 0 7 5 4 11 -4 6 -13 8 -21 5 -7 -3 -18 3 -23 12 -8 12 -10 13
-11 3 0 -10 -5 -8 -17 6 -20 22 -53 27 -53 8 0 -6 3 -15 7 -19 11 -10 12 -36
2 -36 -5 0 -9 7 -9 16 0 8 -4 13 -9 10 -11 -7 -23 56 -15 78 5 12 2 15 -10 10
-10 -4 -16 -1 -16 9 0 9 -5 19 -12 23 -8 5 -9 -2 -5 -27 5 -24 4 -30 -3 -19
-5 8 -10 22 -10 30 0 9 -9 22 -20 30 -11 8 -20 23 -20 33 0 16 -2 17 -15 3
-23 -22 -19 -56 6 -56 13 0 18 4 13 12 -4 7 -3 8 4 4 17 -10 15 -26 -3 -26
-12 0 -12 -4 3 -22 38 -50 165 -167 175 -161 6 3 7 2 4 -4 -9 -14 70 -76 85
-67 6 4 8 3 5 -3 -4 -6 -1 -16 7 -22 10 -9 15 -8 20 4 3 8 1 15 -5 15 -19 0
-4 52 19 68 28 19 30 0 1 -29 -11 -11 -18 -24 -14 -27 4 -4 15 4 26 17 10 13
19 20 19 15 0 -4 -7 -16 -17 -26 -18 -20 -4 -25 15 -6 9 9 12 9 12 -1 0 -11 3
-11 15 -1 8 7 12 17 8 23 -4 6 8 1 25 -12 18 -12 29 -27 25 -33 -4 -7 0 -9 10
-5 10 3 17 3 17 -2 0 -5 10 -11 23 -15 18 -5 20 -8 7 -16 -13 -9 -13 -10 0
-10 9 -1 5 -5 -8 -10 -12 -5 -25 -16 -28 -25 -4 -8 -11 -15 -16 -15 -5 0 0 15
12 34 21 35 15 51 -15 40 -8 -4 -15 -3 -14 2 4 23 -2 36 -15 31 -8 -3 -17 -1
-20 6 -2 7 -5 4 -5 -5 -1 -10 4 -18 11 -18 13 0 2 -14 -13 -16 -5 -1 -13 -2
-19 -3 -5 0 -10 -7 -10 -15 0 -14 71 -66 90 -66 5 0 10 -4 10 -8 0 -5 16 -16
37 -26 26 -12 38 -14 43 -6 4 7 11 11 16 10 5 -1 10 3 12 8 3 9 -34 26 -50 23
-11 -1 -10 11 2 29 8 13 10 12 10 -3 0 -10 10 -21 23 -26 19 -7 23 -5 28 18
l7 26 1 -25 c2 -24 2 -24 16 -6 8 11 15 14 15 8 0 -7 -9 -20 -20 -29 -26 -22
-26 -37 0 -23 16 9 20 8 20 -5 0 -8 4 -15 8 -15 5 0 9 -6 9 -13 0 -8 -6 -14
-13 -14 -7 0 -10 6 -7 14 4 9 0 11 -11 7 -9 -3 -16 -10 -16 -14 0 -11 69 -34
77 -26 4 3 -1 6 -10 6 -11 0 -14 7 -11 24 2 14 -3 31 -12 41 -21 21 -3 44 31
37 36 -6 51 -28 32 -46 -13 -14 -15 -13 -20 5 -4 15 -2 19 9 15 8 -3 12 -2 9
3 -3 6 -14 9 -24 8 -16 -1 -17 -5 -10 -19 5 -10 6 -18 2 -18 -13 0 21 -20 34
-20 7 0 12 6 10 13 -1 8 11 11 41 9 32 -2 42 1 42 13 0 16 36 20 57 7 19 -12
-1 -35 -24 -28 -13 4 -26 -1 -38 -14 -22 -25 -14 -36 14 -20 12 6 25 9 30 6 5
-3 14 1 21 9 7 8 16 12 22 9 5 -3 6 5 3 18 -4 16 -1 29 9 37 11 9 16 10 16 2
0 -6 -4 -11 -10 -11 -14 0 -1 -28 17 -35 9 -3 21 -1 27 6 8 8 7 10 -4 7 -9 -1
-16 2 -16 7 0 14 27 7 49 -13 13 -12 20 -13 29 -4 9 9 9 12 0 12 -7 0 -12 5
-12 11 0 6 7 9 15 5 8 -3 16 -1 16 4 1 6 3 15 4 20 1 6 3 13 4 16 0 4 8 1 17
-7 14 -12 14 -14 -2 -26 -31 -23 -5 -14 36 12 22 14 42 25 45 25 13 0 84 63
80 70 -3 4 1 7 9 6 19 -1 198 153 191 165 -4 5 0 9 7 9 7 0 31 18 53 40 36 35
76 55 60 30 -3 -5 -1 -10 4 -10 17 0 13 -66 -4 -80 -23 -19 -19 -49 5 -43 21
5 28 -11 10 -22 -6 -4 -8 -11 -5 -16 9 -13 -9 -11 -23 3 -9 9 -12 -1 -12 -46
0 -35 4 -55 10 -51 5 3 8 23 5 43 -3 28 -2 33 6 19 6 -9 7 -23 3 -30 -4 -6 3
-3 15 8 38 33 100 174 107 243 l7 63 -47 44 -47 45 11 163 c5 89 10 170 10
180 0 10 26 46 59 81 96 103 101 117 148 446 5 38 27 62 48 54 11 -5 60 3 144
22 63 14 179 102 165 126 -4 6 -3 8 4 4 14 -8 54 44 47 61 -2 8 -1 11 5 8 22
-14 89 194 77 241 -3 13 -5 11 -6 -9 0 -16 -5 -26 -10 -23 -5 3 -8 -13 -7 -35
0 -25 -5 -43 -14 -49 -8 -5 -11 -12 -8 -16 4 -4 2 -16 -4 -28 -7 -11 -12 -23
-11 -26 1 -3 -12 -5 -29 -6 -16 -1 -24 2 -18 6 9 6 9 9 -1 13 -8 4 0 4 16 1
26 -4 27 -3 10 6 -19 10 -19 10 3 6 16 -3 22 1 22 15 0 11 -7 19 -16 19 -8 0
-13 -4 -10 -9 3 -4 -6 -13 -20 -20 -14 -6 -23 -15 -20 -20 4 -5 0 -12 -6 -14
-10 -4 -10 -6 0 -6 26 -2 10 -19 -24 -25 -28 -6 -34 -11 -29 -26 3 -10 1 -21
-5 -25 -5 -3 -10 2 -10 12 -1 17 -1 17 -11 1 -11 -19 -39 -25 -39 -8 0 6 -4
10 -9 10 -6 0 -6 -12 0 -32 5 -18 9 -34 9 -34 0 -1 -7 -5 -16 -8 -12 -4 -15
-2 -10 9 3 8 0 15 -7 15 -7 0 -6 4 3 10 11 7 7 9 -15 7 -26 -2 -30 2 -33 24
-2 19 4 31 25 45 15 10 31 17 36 16 4 -1 6 1 6 5 -3 20 2 26 11 13 8 -13 10
-13 10 1 0 9 7 22 15 29 40 33 54 113 34 189 -3 10 23 26 79 50 96 41 100 53
27 93 -48 26 -144 40 -131 19 3 -5 -7 -13 -22 -19 -36 -12 -81 -68 -109 -135
-12 -29 -22 -47 -23 -41 0 6 11 86 25 179 28 190 38 209 121 241 46 18 45 15
64 134 5 36 16 87 24 115 9 27 27 113 41 190 14 77 40 196 58 265 48 190 41
304 -26 436 -32 63 -97 136 -156 176 -25 17 -47 32 -49 34 -2 1 3 15 11 31 9
16 23 58 32 93 21 80 9 165 -36 260 -57 121 -204 235 -333 259 -38 7 -55 16
-70 38 -38 56 -157 162 -218 196 -155 86 -367 121 -579 97z m726 -1230 c-3 -5
-12 -10 -18 -10 -7 0 -6 4 3 10 19 12 23 12 15 0z m-1430 -10 c3 -5 1 -10 -4
-10 -6 0 -11 5 -11 10 0 6 2 10 4 10 3 0 8 -4 11 -10z m172 4 c25 -7 37 -30
21 -40 -7 -4 -8 -3 -4 4 8 13 -23 31 -41 25 -7 -3 -13 0 -13 6 0 12 6 13 37 5z
m1144 -38 c31 -8 67 -16 82 -18 14 -2 29 -7 33 -11 4 -4 14 -7 23 -7 9 0 29
-7 45 -15 15 -8 35 -15 42 -15 8 0 22 -9 31 -20 10 -11 23 -20 30 -20 7 0 13
-5 13 -11 0 -6 11 -25 25 -43 24 -32 25 -36 25 -210 l0 -177 51 -62 51 -62 -6
-145 c-4 -127 -20 -295 -56 -610 -14 -119 -13 -123 8 -115 49 20 48 20 34 3
-15 -19 -62 -199 -62 -238 0 -37 -10 -61 -21 -54 -5 3 -9 -2 -9 -11 0 -10 -5
-13 -12 -9 -8 5 -9 2 -5 -10 4 -10 7 -22 7 -27 0 -5 5 -9 11 -9 5 0 7 5 3 12
-4 7 -3 8 4 4 16 -9 15 -26 0 -26 -18 0 -68 -51 -68 -69 1 -11 6 -8 16 9 15
24 15 21 0 -27 -5 -17 -2 -23 14 -26 13 -3 11 -4 -7 -3 -23 1 -28 -4 -34 -32
-4 -18 -4 -43 -1 -54 3 -15 1 -19 -6 -14 -21 12 -25 -24 -7 -44 23 -25 14 -36
-15 -20 -21 11 -22 10 -15 -18 5 -25 2 -33 -15 -42 -12 -6 -20 -19 -18 -28 1
-9 -1 -23 -6 -31 -6 -9 -3 -17 7 -23 9 -5 14 -15 11 -22 -3 -8 0 -17 6 -21 15
-9 -79 -75 -97 -68 -12 5 -14 1 -8 -18 4 -13 13 -28 19 -32 7 -5 3 -7 -9 -5
-14 2 -20 -2 -18 -15 0 -12 -4 -16 -13 -13 -7 3 -16 1 -19 -5 -4 -5 -11 -6
-17 -3 -6 4 -6 -1 1 -14 8 -16 7 -21 -5 -26 -8 -3 -12 -2 -9 3 3 5 0 13 -6 17
-8 4 -9 3 -5 -5 4 -6 0 -14 -9 -17 -13 -6 -14 -8 -3 -15 10 -7 9 -9 -5 -9 -9
0 -16 -4 -15 -8 5 -13 -65 -82 -75 -75 -6 3 -7 1 -4 -4 9 -14 -29 -47 -44 -38
-7 5 -10 3 -7 -6 6 -17 -31 -51 -45 -42 -5 3 -7 1 -4 -4 4 -6 1 -16 -7 -22 -8
-7 -16 -8 -18 -4 -3 4 -3 3 -2 -4 4 -16 -23 -36 -37 -27 -7 4 -9 3 -5 -4 8
-14 -41 -52 -67 -52 -11 0 -17 -3 -14 -7 4 -3 -5 -15 -20 -25 -33 -21 -47 -23
-38 -5 4 6 0 4 -8 -6 -17 -21 -123 -33 -143 -17 -14 12 -36 10 -46 -5 -5 -6
-12 -4 -18 5 -6 10 -10 11 -10 3 0 -9 -15 -13 -42 -13 -33 0 -39 3 -28 11 12
8 11 9 -5 5 -46 -11 -166 -17 -178 -9 -6 5 -27 10 -46 12 -19 2 -41 9 -48 17
-8 8 -20 11 -26 8 -8 -5 -8 -2 1 7 15 16 16 29 1 29 -5 0 -8 -4 -5 -9 3 -5 0
-11 -8 -14 -8 -3 -17 1 -20 9 -3 8 -12 14 -20 14 -8 0 -24 12 -36 28 -12 15
-18 20 -14 12 12 -21 -214 181 -255 229 -46 53 -57 73 -36 65 10 -4 15 0 15
11 0 11 -5 15 -14 12 -8 -3 -16 2 -19 15 -3 11 -10 17 -16 13 -6 -3 -11 -1
-11 4 0 6 -6 10 -12 9 -7 -2 -14 4 -14 12 -1 8 -2 20 -3 26 0 5 -17 10 -37 11
-20 1 -40 5 -45 10 -13 13 -20 53 -8 53 5 0 9 -4 9 -8 0 -5 7 -9 15 -9 21 0
15 27 -10 41 -31 17 -41 29 -48 55 -5 20 -3 23 19 18 13 -2 27 0 30 4 4 8 -8
13 -26 11 -4 0 -6 14 -6 33 0 19 4 31 10 28 5 -3 6 -1 2 5 -8 14 -33 5 -40
-13 -3 -9 0 -12 10 -8 9 3 14 -1 14 -12 0 -26 -34 -13 -38 14 -3 18 -6 21 -12
10 -5 -7 -12 -10 -17 -6 -8 9 17 28 28 21 4 -2 12 2 18 10 13 15 4 49 -10 40
-5 -3 -9 0 -9 5 0 6 7 11 15 11 18 0 19 -5 -5 58 -11 29 -20 62 -20 75 -1 12
-8 40 -16 62 -9 22 -17 54 -20 72 -2 18 -8 43 -13 55 -7 18 -9 13 -9 -26 -1
-27 -3 -50 -5 -52 -2 -2 -12 32 -23 76 -12 44 -17 80 -12 80 4 0 8 5 8 11 0 5
-4 7 -10 4 -5 -3 -10 4 -10 15 0 16 5 20 15 16 8 -3 15 -2 15 3 0 5 -9 11 -20
14 -14 4 -20 14 -20 35 0 17 -4 42 -10 56 -8 23 -7 26 10 26 26 0 26 18 -5
238 -14 98 -45 440 -46 517 -3 100 2 114 64 188 l40 48 -6 172 c-6 156 -4 176
13 215 11 23 25 41 32 40 6 -2 12 3 13 11 0 7 11 20 25 29 l25 14 -25 -21
c-18 -15 -21 -21 -10 -21 9 0 21 5 27 11 16 16 128 38 194 39 31 0 110 -11
175 -24 162 -33 262 -41 359 -26 88 13 235 58 235 71 0 5 9 9 19 9 11 0 23 5
26 10 3 6 45 11 93 11 48 1 116 5 152 9 117 13 283 11 341 -4z m-1787 -1526
c8 0 8 -3 0 -8 -9 -5 -8 -25 2 -76 8 -38 13 -73 11 -79 -2 -6 -11 27 -20 74
-9 46 -19 95 -22 109 -5 25 -5 25 6 3 7 -13 17 -23 23 -23z m2255 -9 c-16 -54
-24 -46 -9 9 6 23 14 40 16 37 3 -3 0 -24 -7 -46z m-22 -83 c-3 -7 -5 -2 -5
12 0 14 2 19 5 13 2 -7 2 -19 0 -25z m-2549 -26 c2 -7 -2 -10 -12 -6 -9 3 -16
1 -16 -4 0 -6 8 -13 18 -15 15 -4 15 -5 0 -6 -21 -1 -32 15 -24 35 7 17 27 15
34 -4z m2533 -33 c-5 -13 -10 -19 -10 -12 -1 15 10 45 15 40 3 -2 0 -15 -5
-28z m290 -34 c-1 -15 -24 -12 -29 3 -3 9 2 13 12 10 10 -1 17 -7 17 -13z
m-2584 -1 c-3 -3 -12 -4 -19 -1 -8 3 -5 6 6 6 11 1 17 -2 13 -5z m38 -14 c3
-5 2 -10 -4 -10 -5 0 -13 5 -16 10 -3 6 -2 10 4 10 5 0 13 -4 16 -10z m2331
-7 c-4 -9 -2 -20 5 -24 8 -4 8 -12 2 -24 -9 -15 -12 -13 -22 15 -15 43 -14 50
5 50 11 0 14 -5 10 -17z m-2416 -3 c0 -5 -9 -10 -21 -10 -11 0 -17 5 -14 10 3
6 13 10 21 10 8 0 14 -4 14 -10z m2650 -4 c0 -3 -4 -8 -10 -11 -5 -3 -10 -1
-10 4 0 6 5 11 10 11 6 0 10 -2 10 -4z m-2700 -20 c0 -11 -19 -15 -25 -6 -3 5
1 10 9 10 9 0 16 -2 16 -4z m210 -8 c0 -4 -9 -8 -21 -8 -11 0 -18 4 -15 8 3 5
12 9 21 9 8 0 15 -4 15 -9z m2405 -8 c3 -5 -1 -10 -9 -10 -9 0 -16 -5 -16 -12
0 -6 -2 -9 -5 -6 -7 7 5 38 15 38 5 0 12 -4 15 -10z m36 -17 c-8 -15 -10 -15
-11 -2 0 17 10 32 18 25 2 -3 -1 -13 -7 -23z m-138 -3 c3 -11 1 -20 -4 -20 -5
0 -9 2 -9 4 0 2 -3 11 -6 20 -3 9 -2 16 4 16 5 0 12 -9 15 -20z m-2292 -113
c-10 -9 -11 -8 -5 6 3 10 9 15 12 12 3 -3 0 -11 -7 -18z m86 -29 c-3 -8 -6 -5
-6 6 -1 11 2 17 5 13 3 -3 4 -12 1 -19z m2 -90 c2 24 16 11 36 -31 19 -41 19
-43 2 -44 -9 -1 -15 2 -12 7 8 12 -5 60 -16 60 -5 0 -9 -8 -10 -17 0 -15 -2
-15 -9 2 -5 11 -9 27 -9 35 0 9 4 8 9 -5 5 -11 9 -14 9 -7z m1968 -60 c-3 -8
-6 -5 -6 6 -1 11 2 17 5 13 3 -3 4 -12 1 -19z m-11 -75 c-10 -10 -19 5 -10 18
6 11 8 11 12 0 2 -7 1 -15 -2 -18z m-1931 -2 c-3 -6 -11 -11 -16 -11 -5 0 -4
6 3 14 14 16 24 13 13 -3z m-5 -71 c0 -5 -2 -10 -4 -10 -3 0 -8 5 -11 10 -3 6
-1 10 4 10 6 0 11 -4 11 -10z m1884 -58 c2 -4 -4 -9 -15 -9 -10 -1 -19 2 -19
8 0 11 27 12 34 1z m-1680 -522 c14 -22 23 -40 19 -40 -5 0 -18 18 -31 40 -29
52 -22 52 12 0z m1437 -103 c-6 -8 -7 -18 -3 -22 4 -5 1 -5 -6 -1 -10 6 -10
11 -1 22 6 8 14 14 16 14 3 0 0 -6 -6 -13z m25 -54 c-11 -11 -19 6 -11 24 8
17 8 17 12 0 3 -10 2 -21 -1 -24z m49 27 c3 -5 1 -10 -4 -10 -6 0 -11 5 -11
10 0 6 2 10 4 10 3 0 8 -4 11 -10z m-105 -10 c0 -5 -5 -10 -11 -10 -5 0 -7 5
-4 10 3 6 8 10 11 10 2 0 4 -4 4 -10z m14 -35 c-17 -26 -24 -31 -24 -16 0 10
28 41 36 41 2 0 -3 -11 -12 -25z m-61 -24 c-3 -11 -14 -21 -24 -24 -18 -5 -17
-3 3 19 28 29 27 29 21 5z m69 -46 c-3 -5 -7 -4 -10 3 -5 17 -19 15 -42 -8
-17 -17 -18 -24 -9 -41 6 -11 8 -23 5 -27 -3 -3 -6 0 -6 6 0 7 -7 12 -16 12
-12 0 -15 6 -10 25 4 14 2 25 -4 25 -5 0 -10 -5 -10 -11 0 -6 -7 -9 -15 -5 -8
3 -15 1 -15 -5 0 -5 7 -12 15 -15 8 -4 15 -13 15 -22 0 -12 -4 -11 -16 6 -9
13 -22 21 -30 18 -8 -3 -14 -2 -14 2 0 10 32 37 45 38 28 1 86 17 91 25 3 5
11 3 18 -4 8 -6 11 -16 8 -22z m-1252 -30 c0 -8 5 -15 10 -15 6 0 10 -9 10
-19 0 -11 6 -22 13 -24 7 -3 7 -6 1 -6 -6 -1 -18 7 -26 17 -21 23 -32 62 -19
62 6 0 11 -7 11 -15z m1091 -49 c8 -17 8 -29 0 -42 -9 -17 -10 -16 -11 9 0 16
-4 26 -8 23 -4 -2 -8 4 -8 15 0 26 14 24 27 -5z m29 20 c0 -3 -4 -8 -10 -11
-5 -3 -10 -1 -10 4 0 6 5 11 10 11 6 0 10 -2 10 -4z m-66 -55 c-2 -2 -10 2
-19 9 -13 11 -15 9 -15 -14 0 -21 -5 -26 -24 -26 -26 0 -50 -22 -38 -35 4 -5
1 -5 -6 -1 -17 10 18 55 38 48 8 -3 12 -1 7 3 -4 5 3 19 14 32 21 21 23 21 35
5 7 -9 11 -19 8 -21z m-904 14 c7 -9 8 -15 2 -15 -5 0 -12 7 -16 15 -3 8 -4
15 -2 15 2 0 9 -7 16 -15z m970 -25 c0 -5 -2 -10 -4 -10 -3 0 -8 5 -11 10 -3
6 -1 10 4 10 6 0 11 -4 11 -10z m-66 -21 c3 1 6 -2 6 -6 0 -18 -25 -6 -28 12
-2 15 -1 16 6 7 5 -8 12 -13 16 -13z m-43 -36 c-12 -20 -14 -14 -5 12 4 9 9
14 11 11 3 -2 0 -13 -6 -23z m-21 3 c0 -3 -4 -8 -10 -11 -5 -3 -10 -1 -10 4 0
6 5 11 10 11 6 0 10 -2 10 -4z m-87 -48 c-2 -4 -10 -2 -17 5 -8 6 -12 15 -9
19 2 4 10 2 17 -5 8 -6 12 -15 9 -19z m-39 -9 c-3 -5 -10 -7 -15 -3 -5 3 -7
10 -3 15 3 5 10 7 15 3 5 -3 7 -10 3 -15z m83 -5 c11 -23 10 -27 -7 -31 -11
-3 -20 -10 -20 -15 0 -5 -4 -7 -9 -4 -5 4 -11 2 -13 -3 -1 -5 -11 -3 -22 4
-20 15 -16 45 6 45 10 0 10 -2 0 -9 -11 -6 -10 -10 3 -15 20 -7 46 21 38 41
-10 25 12 13 24 -13z m29 -1 c-10 -10 -19 5 -10 18 6 11 8 11 12 0 2 -7 1 -15
-2 -18z m-127 -27 c0 -7 -2 -6 -6 2 -2 6 -12 12 -20 12 -14 0 -13 -3 3 -22 19
-21 19 -21 -1 -15 -20 7 -20 7 -1 -8 19 -14 19 -15 -8 -15 -15 0 -25 -4 -21
-10 8 -13 -1 -13 -26 0 -31 17 -23 46 19 68 37 19 63 15 61 -12z m-594 14 c-3
-5 -13 -10 -21 -10 -8 0 -12 5 -9 10 3 6 13 10 21 10 8 0 12 -4 9 -10z m125
-6 c0 -2 -7 -4 -15 -4 -8 0 -15 4 -15 10 0 5 7 7 15 4 8 -4 15 -8 15 -10z
m-50 -34 c0 -11 -7 -20 -15 -20 -18 0 -19 6 -2 25 16 19 17 18 17 -5z m55 10
c3 -5 1 -10 -4 -10 -6 0 -11 5 -11 10 0 6 2 10 4 10 3 0 8 -4 11 -10z m295
-30 c0 -5 -2 -10 -4 -10 -3 0 -8 5 -11 10 -3 6 -1 10 4 10 6 0 11 -4 11 -10z
m-115 -10 c3 -5 1 -10 -4 -10 -6 0 -11 5 -11 10 0 6 2 10 4 10 3 0 8 -4 11
-10z"/>
<path d="M4515 7849 c-212 -8 -282 -22 -332 -71 -46 -43 -156 -178 -151 -183
2 -3 29 5 59 17 137 53 183 60 418 65 221 5 225 6 249 30 20 20 23 30 17 61
-7 40 -36 78 -63 84 -10 2 -98 0 -197 -3z"/>
<path d="M5344 7850 c-47 -19 -63 -55 -62 -143 1 -91 17 -118 73 -130 17 -3
24 -4 18 -1 -24 11 -13 22 27 29 36 6 40 10 40 35 0 31 -10 35 -105 43 -22 2
25 4 105 5 211 2 410 -28 533 -80 26 -11 50 -18 54 -15 7 8 -88 125 -149 184
-57 55 -72 58 -438 78 -41 2 -85 0 -96 -5z"/>
<path d="M4650 7661 c-34 -5 -33 -5 15 -11 l50 -7 -47 -1 c-41 -2 -48 -5 -48
-22 0 -11 4 -20 8 -20 5 0 19 -14 31 -31 13 -18 17 -28 10 -23 -20 12 -34 14
-119 15 -111 1 -240 -48 -326 -124 -44 -38 -89 -95 -82 -102 2 -2 41 21 88 51
47 30 90 54 97 54 9 0 10 -14 6 -49 -14 -121 81 -228 180 -200 38 10 91 61
106 102 14 36 14 118 1 153 -6 15 -9 28 -7 30 12 13 88 -24 121 -59 32 -34 37
-36 31 -16 -4 13 -14 36 -21 51 -14 26 -13 27 19 30 26 2 33 8 38 33 4 19 7
23 8 10 1 -11 8 -31 16 -45 11 -20 14 -21 15 -7 0 22 -48 169 -60 181 -10 10
-82 14 -130 7z"/>
<path d="M5259 7620 c-1 -5 -2 -14 -3 -19 0 -5 -4 -13 -8 -17 -5 -4 -8 -12 -8
-18 1 -15 24 25 27 47 2 9 1 17 -2 17 -3 0 -6 -4 -6 -10z"/>
<path d="M5397 7593 c-12 -11 -8 -23 8 -23 8 0 15 7 15 15 0 16 -12 20 -23 8z"/>
<path d="M5365 7549 c-11 -16 -1 -19 13 -3 7 8 8 14 3 14 -5 0 -13 -5 -16 -11z"/>
<path d="M5381 7527 c-25 -17 -51 -48 -66 -77 -33 -65 -31 -71 8 -28 21 23 49
40 76 48 24 6 45 10 46 8 2 -2 -3 -25 -12 -51 -31 -93 5 -184 90 -226 47 -23
48 -23 93 -6 79 30 125 139 96 224 -6 17 -9 31 -6 31 10 0 119 -57 162 -84 24
-15 47 -25 50 -21 3 3 -23 34 -59 68 -101 98 -231 151 -363 146 -62 -3 -80 -8
-115 -32z"/>
<path d="M5226 7511 c-4 -24 -5 -46 -2 -48 7 -7 19 63 14 79 -3 7 -8 -7 -12
-31z"/>
<path d="M5224 6808 l4 -98 -51 -15 c-61 -18 -181 -19 -278 -3 l-71 12 7 86
c4 47 4 82 1 79 -10 -9 -36 -168 -36 -217 0 -33 5 -47 26 -65 15 -12 36 -31
48 -42 61 -58 76 -65 150 -65 82 0 107 12 186 88 45 44 50 53 50 92 0 42 -9
100 -30 200 -8 37 -9 27 -6 -52z"/>
<path d="M4006 6705 c-3 -9 -6 -22 -5 -28 0 -7 5 -1 10 12 5 13 8 26 5 28 -2
2 -6 -3 -10 -12z"/>
<path d="M6046 6655 c-3 -8 -1 -15 4 -15 6 0 10 7 10 15 0 8 -2 15 -4 15 -2 0
-6 -7 -10 -15z"/>
<path d="M5480 6291 c-71 -38 -644 -51 -830 -18 -52 9 -103 17 -112 17 -32 0
-19 -18 25 -34 132 -47 262 -66 462 -66 218 0 505 55 505 96 0 15 -26 18 -50
5z"/>
<path d="M4146 6161 c-4 -7 -5 -15 -2 -18 9 -9 19 4 14 18 -4 11 -6 11 -12 0z"/>
<path d="M5867 6080 c-3 -13 -11 -18 -20 -14 -8 3 -18 1 -21 -5 -8 -12 34 -11
52 2 14 11 16 37 3 37 -5 0 -11 -9 -14 -20z"/>
<path d="M4835 6060 c10 -11 47 -35 82 -52 55 -27 70 -30 119 -25 61 6 150 45
179 77 18 20 18 20 -190 20 l-208 0 18 -20z"/>
<path d="M4210 6060 c8 -5 20 -10 25 -10 6 0 3 5 -5 10 -8 5 -19 10 -25 10 -5
0 -3 -5 5 -10z"/>
<path d="M5770 5980 c0 -5 5 -10 10 -10 6 0 10 5 10 10 0 6 -4 10 -10 10 -5 0
-10 -4 -10 -10z"/>
<path d="M4635 5600 c3 -5 8 -10 11 -10 2 0 4 5 4 10 0 6 -5 10 -11 10 -5 0
-7 -4 -4 -10z"/>
<path d="M4750 5570 c-13 -9 -12 -12 4 -25 25 -19 46 -19 46 0 0 8 5 15 11 15
5 0 7 5 4 10 -8 13 -46 13 -65 0z"/>
<path d="M4842 5554 c10 -10 20 -15 24 -12 3 4 -5 12 -18 18 -22 12 -22 12 -6
-6z"/>
<path d="M4892 5540 c0 -14 2 -19 5 -12 2 6 2 18 0 25 -3 6 -5 1 -5 -13z"/>
<path d="M5227 5103 c5 -12 3 -14 -7 -8 -9 5 -11 4 -6 -4 4 -6 12 -9 17 -6 12
8 12 35 -1 35 -5 0 -6 -7 -3 -17z"/>
<path d="M3520 6905 c0 -8 4 -15 8 -15 5 0 9 7 9 15 0 8 -4 15 -9 15 -4 0 -8
-7 -8 -15z"/>
<path d="M3672 6900 c0 -14 2 -19 5 -12 2 6 2 18 0 25 -3 6 -5 1 -5 -13z"/>
<path d="M3581 6894 c0 -11 3 -14 6 -6 3 7 2 16 -1 19 -3 4 -6 -2 -5 -13z"/>
<path d="M4603 5177 c0 -7 6 -18 14 -25 14 -14 17 -4 7 22 -7 19 -21 21 -21 3z"/>
<path d="M4841 5031 c-10 -6 -10 -10 -1 -16 13 -8 24 -1 19 14 -3 6 -10 7 -18
2z"/>
<path d="M5005 5020 c3 -5 13 -10 21 -10 8 0 14 5 14 10 0 6 -9 10 -21 10 -11
0 -17 -4 -14 -10z"/>
<path d="M5215 5020 c-3 -6 1 -7 9 -4 18 7 21 14 7 14 -6 0 -13 -4 -16 -10z"/>
<path d="M3758 4960 c-21 -33 -32 -57 -24 -54 9 3 19 -10 30 -38 22 -55 231
-443 307 -570 73 -122 150 -234 194 -282 30 -33 35 -35 59 -25 14 7 23 15 21
19 -2 4 2 7 10 7 20 0 45 -29 50 -57 5 -25 15 -40 15 -22 0 10 31 9 95 -3 11
-2 24 -4 28 -4 5 -1 5 -5 2 -11 -4 -6 1 -7 11 -3 13 5 16 3 11 -10 -4 -10 -2
-17 6 -17 19 1 51 29 43 37 -4 5 -14 0 -21 -10 -12 -17 -13 -16 -11 6 0 15 6
23 14 20 8 -4 10 0 6 11 -3 9 -10 16 -15 16 -5 0 -9 5 -9 10 0 6 7 10 15 10 8
0 14 -3 13 -7 -2 -12 14 -47 26 -56 7 -5 4 -13 -9 -23 -20 -16 -20 -16 1 -12
23 6 50 -25 38 -43 -4 -7 0 -7 14 0 32 17 36 31 8 31 -20 0 -24 4 -19 17 4 11
3 14 -5 9 -7 -4 -12 -2 -12 4 0 6 8 10 18 8 9 -2 16 -10 15 -16 -4 -18 15 -14
26 6 5 9 12 16 15 14 4 -1 18 1 33 4 18 5 30 2 37 -8 16 -21 49 1 36 23 -5 8
-7 22 -4 31 3 10 2 23 -3 30 -4 7 -8 18 -9 23 -1 6 -11 46 -22 90 -19 72 -28
122 -47 235 -3 19 -8 80 -11 135 -10 179 -41 232 -149 255 -33 7 -68 16 -77
21 -26 14 -43 2 -66 -44 -21 -43 -74 -214 -118 -387 -28 -107 -45 -160 -54
-160 -3 0 -25 35 -49 78 -25 42 -83 142 -129 222 -47 80 -130 233 -185 340
-55 107 -103 198 -106 202 -4 4 -23 -19 -43 -52z m702 -695 c0 -13 6 -26 13
-28 7 -3 5 -6 -5 -6 -12 -1 -18 6 -18 20 0 13 -4 18 -12 13 -10 -6 -10 -5 -1
8 7 8 9 19 5 23 -4 5 -1 5 6 1 6 -4 12 -18 12 -31z m50 -20 c19 -21 21 -25 7
-25 -9 0 -17 5 -17 11 0 7 -8 18 -17 25 -10 7 -13 14 -7 14 6 0 21 -11 34 -25z
m-70 -40 c0 -8 -4 -15 -10 -15 -5 0 -7 7 -4 15 4 8 8 15 10 15 2 0 4 -7 4 -15z
m58 -26 c-3 -8 -7 -3 -11 10 -4 17 -3 21 5 13 5 -5 8 -16 6 -23z m56 16 c-4
-8 -8 -15 -10 -15 -2 0 -4 7 -4 15 0 8 4 15 10 15 5 0 7 -7 4 -15z m64 -42
c-6 -7 -15 -13 -20 -13 -6 0 -5 7 2 15 10 12 10 15 -3 15 -8 0 -18 7 -21 15
-5 14 -1 13 24 -1 22 -14 27 -21 18 -31z m-39 -18 c0 -5 -6 -1 -14 9 -8 10
-11 24 -8 29 6 10 21 -16 22 -38z m-149 15 c0 -5 -4 -10 -10 -10 -5 0 -10 5
-10 10 0 6 5 10 10 10 6 0 10 -4 10 -10z m55 0 c-3 -5 -1 -10 5 -10 6 0 8 -4
5 -10 -3 -5 -1 -10 6 -10 7 0 6 -8 -5 -25 -10 -15 -12 -25 -6 -25 6 0 8 -5 4
-12 -5 -8 0 -9 14 -6 12 4 24 3 27 -2 3 -4 -4 -10 -15 -13 -27 -7 -55 30 -38
51 9 10 8 16 -3 23 -8 5 -9 9 -4 9 6 0 1 6 -10 12 -19 11 -19 11 0 19 27 10
27 10 20 -1z m55 -11 c0 -5 -4 -9 -8 -9 -5 0 -9 7 -9 15 0 8 4 12 9 9 4 -3 8
-9 8 -15z m-140 -9 c0 -5 -5 -10 -11 -10 -5 0 -7 5 -4 10 3 6 8 10 11 10 2 0
4 -4 4 -10z m160 -10 c0 -5 -5 -10 -11 -10 -5 0 -7 5 -4 10 3 6 8 10 11 10 2
0 4 -4 4 -10z m-125 -24 c-17 -12 -16 -14 12 -36 21 -15 29 -28 26 -41 -5 -16
-7 -16 -20 -4 -8 8 -18 15 -23 15 -5 0 -7 7 -3 15 3 9 -2 22 -13 30 -11 7 -17
15 -14 17 40 26 71 30 35 4z m330 2 c5 4 5 1 1 -5 -10 -18 -23 -16 -30 3 -5
13 -4 14 7 6 8 -7 18 -8 22 -4z m-185 -2 c0 -3 -4 -8 -10 -11 -5 -3 -10 -1
-10 4 0 6 5 11 10 11 6 0 10 -2 10 -4z m-184 -36 c18 0 18 -17 0 -36 -11 -10
-17 -11 -22 -3 -3 6 0 16 7 21 10 6 7 7 -9 3 -22 -6 -23 -5 -11 17 7 14 14 18
17 10 2 -6 10 -12 18 -12z m241 4 c-3 -4 3 -14 15 -24 16 -13 18 -19 8 -25 -9
-5 -11 -4 -6 3 4 8 0 12 -11 12 -12 0 -19 8 -20 20 -1 11 3 20 9 20 6 0 9 -3
5 -6z m73 -4 c0 -5 -4 -10 -10 -10 -5 0 -10 5 -10 10 0 6 5 10 10 10 6 0 10
-4 10 -10z m-5 -64 c5 -34 4 -36 -15 -26 -24 13 -40 6 -40 -18 0 -15 -2 -15
-10 -2 -14 21 -12 30 4 30 8 0 17 6 20 13 5 9 7 9 12 -1 10 -22 24 -2 18 26
-4 15 -4 24 0 21 4 -3 9 -23 11 -43z m-140 18 c20 -16 20 -16 -2 -9 -14 4 -23
2 -23 -4 0 -6 7 -11 15 -11 8 0 15 -5 15 -11 0 -7 -9 -9 -22 -5 -13 3 -29 6
-36 6 -9 0 -8 7 5 25 21 29 22 29 48 9z m35 6 c0 -5 -7 -7 -15 -4 -8 4 -15 8
-15 10 0 2 7 4 15 4 8 0 15 -4 15 -10z m166 -6 c-3 -9 -6 -22 -6 -30 0 -8 -6
-11 -15 -8 -11 5 -15 -1 -15 -17 0 -17 3 -20 9 -11 4 7 14 12 22 10 9 -2 13 5
12 19 -3 23 17 36 37 23 8 -5 10 -15 6 -26 -5 -14 -9 -15 -15 -5 -6 10 -10 9
-14 -4 -4 -9 -3 -13 2 -10 11 6 26 -13 18 -22 -3 -3 -12 -1 -19 3 -21 14 -36
13 -49 -2 -6 -8 -16 -11 -21 -8 -6 4 -13 2 -17 -4 -4 -7 -12 -6 -25 3 -18 13
-15 35 5 35 6 0 7 -4 4 -10 -3 -5 -1 -10 5 -10 6 0 19 13 28 30 9 16 20 30 25
30 4 0 7 7 7 15 0 8 5 15 11 15 6 0 8 -7 5 -16z m-293 -27 c8 6 19 2 34 -14
15 -15 18 -23 9 -23 -8 0 -19 7 -26 15 -9 11 -17 12 -30 5 -28 -15 -39 -12
-33 10 4 16 8 18 19 9 9 -7 19 -8 27 -2z m95 -38 c-2 -6 -8 -10 -13 -10 -5 0
-11 4 -13 10 -2 6 4 11 13 11 9 0 15 -5 13 -11z"/>
<path d="M4968 4993 c-4 -16 1 -19 43 -20 39 0 46 2 35 12 -6 7 -26 16 -43 19
-24 6 -31 3 -35 -11z"/>
<path d="M5130 4995 c-9 -10 -9 -15 -1 -15 6 0 11 4 11 10 0 5 7 6 17 3 11 -4
14 -3 9 5 -10 16 -21 15 -36 -3z"/>
<path d="M6204 4898 c-31 -62 -76 -147 -100 -189 -24 -42 -44 -78 -44 -81 0
-6 -109 -191 -213 -362 -53 -86 -62 -96 -69 -77 -4 12 -37 131 -74 264 -36
133 -72 254 -80 269 -22 43 -40 48 -100 27 -30 -11 -67 -19 -83 -19 -20 0 -38
-10 -59 -34 -34 -39 -38 -56 -47 -181 -11 -154 -34 -311 -56 -381 -5 -17 -11
-40 -13 -50 -4 -16 -58 -181 -72 -218 -3 -7 1 -13 8 -13 7 0 21 -4 31 -8 13
-5 17 -2 17 13 0 28 11 33 48 22 20 -5 34 -5 38 1 3 5 11 6 17 3 8 -5 8 -3 0
7 -15 15 -18 43 -4 35 5 -4 7 3 4 13 -3 14 2 21 19 26 12 5 29 15 36 24 8 9
11 10 7 4 -4 -8 0 -14 9 -14 9 -1 22 -2 28 -3 22 -2 20 -34 -2 -41 -16 -5 -19
-10 -11 -18 7 -7 15 -6 26 3 9 7 15 9 14 4 -4 -23 3 -34 21 -34 11 0 20 5 20
10 0 6 7 10 16 10 8 0 12 -5 8 -11 -5 -8 -1 -8 14 0 11 6 23 16 25 23 3 7 6 4
6 -7 1 -15 3 -17 10 -7 6 10 10 9 14 -7 3 -12 0 -24 -5 -28 -7 -4 -8 -1 -3 7
5 8 4 11 -3 6 -5 -3 -12 0 -15 6 -2 7 -8 9 -13 5 -5 -5 -1 -13 9 -18 9 -6 14
-15 11 -21 -11 -17 55 24 78 49 17 19 19 25 8 38 -7 9 -8 15 -2 15 6 0 12 -6
15 -12 3 -10 7 -10 17 -1 7 6 9 17 4 24 -4 7 -9 25 -10 39 -2 21 0 20 13 -10
9 -19 18 -29 20 -22 3 6 10 12 16 12 19 0 61 44 110 112 41 57 217 343 217
352 0 2 28 53 63 113 34 60 87 162 117 226 42 90 59 116 72 113 12 -3 4 13
-24 50 -22 30 -42 54 -44 54 -2 0 -29 -51 -60 -112z m-579 -608 c3 -5 1 -10
-4 -10 -6 0 -11 5 -11 10 0 6 2 10 4 10 3 0 8 -4 11 -10z m-25 -20 c0 -5 -4
-10 -10 -10 -5 0 -10 5 -10 10 0 6 5 10 10 10 6 0 10 -4 10 -10z m-30 -30 c0
-5 -7 -10 -16 -10 -8 0 -12 5 -9 10 3 6 10 10 16 10 5 0 9 -4 9 -10z m40 6 c0
-2 -8 -10 -17 -17 -16 -13 -17 -12 -4 4 13 16 21 21 21 13z m27 -28 c-3 -8 -6
-5 -6 6 -1 11 2 17 5 13 3 -3 4 -12 1 -19z m-116 -65 c-8 -15 -10 -15 -11 -2
0 17 10 32 18 25 2 -3 -1 -13 -7 -23z m139 12 c0 -2 -10 -9 -21 -16 -13 -6
-19 -7 -15 -1 3 6 -2 13 -11 15 -10 3 -3 5 15 6 17 0 32 -1 32 -4z m-163 -40
c0 -17 -13 -20 -21 -6 -4 5 0 12 6 14 7 3 13 6 14 6 0 1 1 -6 1 -14z m153 -29
c0 -6 -7 -2 -15 8 -17 23 -19 9 -5 -29 6 -16 7 -33 1 -44 -11 -20 2 -50 13
-32 9 13 26 5 26 -12 0 -7 -4 -6 -10 3 -6 10 -10 11 -10 3 0 -20 -24 -15 -37
7 -10 16 -10 22 1 32 10 9 11 20 4 40 -13 38 -3 65 17 48 8 -7 15 -18 15 -24z
m-217 -7 c4 -16 3 -18 -9 -8 -16 13 -19 29 -5 29 5 0 11 -9 14 -21z m52 -19
c5 -8 11 -8 20 0 9 8 15 8 20 0 3 -5 -2 -10 -12 -10 -15 0 -16 -2 -3 -10 10
-6 11 -10 3 -10 -7 0 -22 9 -33 20 -11 11 -16 20 -11 20 6 0 13 -5 16 -10z
m205 1 c0 -14 -29 -21 -36 -9 -4 7 -3 8 4 4 7 -4 12 -2 12 3 0 6 5 11 10 11 6
0 10 -4 10 -9z m-396 -51 c-5 -5 -10 3 -11 18 -1 22 0 24 9 8 6 -10 6 -22 2
-26z m176 30 c0 -5 -5 -10 -11 -10 -5 0 -7 5 -4 10 3 6 8 10 11 10 2 0 4 -4 4
-10z m94 -6 c9 -3 16 -13 16 -22 0 -13 -2 -13 -18 1 -10 10 -22 14 -27 10 -4
-5 -5 -2 -1 5 8 14 9 14 30 6z m-224 -25 c0 -5 -4 -9 -8 -9 -5 0 -9 7 -9 15 0
8 4 12 9 9 4 -3 8 -9 8 -15z m149 8 c-2 -1 -13 -9 -24 -17 -19 -14 -19 -14 -6
3 7 9 18 17 24 17 6 0 8 -1 6 -3z m-109 -17 c0 -5 -4 -10 -10 -10 -5 0 -10 5
-10 10 0 6 5 10 10 10 6 0 10 -4 10 -10z m140 6 c0 -3 -4 -8 -10 -11 -5 -3
-10 -1 -10 4 0 6 5 11 10 11 6 0 10 -2 10 -4z m52 -29 c7 -2 10 -7 6 -11 -7
-8 -48 23 -48 37 0 5 7 2 15 -6 8 -9 20 -17 27 -20z m-302 13 c0 -5 -5 -10
-11 -10 -5 0 -7 5 -4 10 3 6 8 10 11 10 2 0 4 -4 4 -10z m362 -45 c18 -10 27
-20 20 -23 -22 -7 -62 27 -61 51 1 13 3 16 6 6 2 -8 18 -24 35 -34z m-319 1
c-4 -6 -8 -6 -10 1 -3 7 -11 9 -19 6 -10 -4 -12 0 -8 10 5 13 9 14 24 5 10 -7
16 -17 13 -22z m207 19 c0 -8 -6 -15 -13 -15 -8 0 -14 7 -14 15 0 8 6 15 14
15 7 0 13 -7 13 -15z m-252 -25 c15 0 15 -2 2 -10 -22 -14 -26 -12 -27 13 0
12 1 16 4 10 3 -7 12 -13 21 -13z m277 -2 c-6 -17 -4 -20 9 -15 9 4 16 2 16
-3 0 -19 -38 -10 -43 9 -5 21 0 31 15 31 5 0 6 -10 3 -22z m-30 -9 c11 -17 0
-20 -21 -4 -17 13 -17 14 -2 15 9 0 20 -5 23 -11z m-175 -3 c0 -2 -7 -9 -15
-16 -12 -10 -15 -10 -15 4 0 9 7 16 15 16 8 0 15 -2 15 -4z m-90 -36 c0 -5 -7
-7 -15 -4 -8 4 -12 10 -9 15 6 11 24 2 24 -11z m63 6 c25 -19 21 -27 -8 -14
-14 6 -25 15 -25 20 0 12 12 9 33 -6z m327 -1 c0 -8 -2 -15 -4 -15 -2 0 -6 7
-10 15 -3 8 -1 15 4 15 6 0 10 -7 10 -15z m-402 -33 c2 -7 -2 -10 -12 -6 -9 3
-16 11 -16 16 0 13 23 5 28 -10z"/>
<path d="M5086 4985 c-3 -8 -1 -15 4 -15 6 0 10 7 10 15 0 8 -2 15 -4 15 -2 0
-6 -7 -10 -15z"/>
<path d="M2190 4125 c-13 -14 -18 -25 -11 -25 25 0 259 -246 326 -344 133
-193 240 -427 301 -661 21 -78 52 -285 44 -285 -4 0 -15 10 -26 21 -27 30
-213 199 -324 294 -51 44 -108 95 -126 113 -19 17 -36 32 -39 32 -3 0 12 -27
35 -59 22 -33 40 -63 40 -66 0 -4 31 -55 69 -113 37 -59 134 -215 213 -347 80
-132 164 -270 187 -307 22 -37 41 -70 41 -74 0 -11 -265 147 -457 273 -48 32
-95 62 -103 67 -17 11 -24 20 81 -114 198 -252 415 -564 499 -715 18 -33 45
-80 60 -105 25 -40 56 -147 47 -157 -2 -2 -20 4 -41 12 -131 55 -468 82 -681
55 -154 -19 -330 -64 -432 -111 -24 -10 -47 -19 -53 -19 -19 0 -127 -89 -153
-127 -51 -74 -59 -129 -31 -224 25 -87 22 -84 47 -58 64 69 207 169 325 228
77 39 246 89 354 105 276 41 643 -1 829 -94 32 -17 61 -30 65 -30 9 0 -4 91
-22 160 -13 51 -64 312 -79 405 -4 22 -9 54 -12 70 -2 17 -11 53 -18 80 -8 28
-19 77 -26 110 -6 33 -12 65 -14 70 -1 6 -5 33 -9 60 -12 77 -93 455 -128 595
-65 262 -170 545 -269 725 -35 65 -132 214 -186 285 -35 47 -283 300 -293 300
-4 0 -17 -11 -30 -25z"/>
<path d="M7733 4043 c-58 -60 -123 -131 -144 -159 -20 -28 -44 -57 -52 -65
-17 -17 -117 -172 -159 -244 -150 -263 -258 -598 -367 -1135 -82 -405 -101
-501 -115 -585 -27 -159 -105 -545 -112 -557 -7 -11 10 -10 21 0 14 13 88 40
180 68 136 41 264 57 470 58 165 1 204 -2 294 -22 239 -54 467 -168 590 -296
19 -20 38 -36 42 -36 7 0 15 18 24 57 3 10 9 38 15 63 18 73 -10 149 -80 221
-22 22 -122 93 -134 95 -6 1 -29 10 -51 20 -22 10 -44 19 -50 20 -5 1 -63 16
-127 32 -239 62 -561 69 -791 18 -65 -14 -127 -30 -137 -36 -27 -14 -29 -13
-24 17 3 16 6 39 8 53 5 44 243 427 382 616 44 60 98 134 120 164 21 30 68 93
105 140 90 116 91 119 18 64 -119 -92 -484 -312 -496 -301 -10 10 9 48 69 139
34 51 88 138 121 193 33 55 116 190 185 300 148 237 192 310 192 322 -1 4 -8
-1 -18 -12 -9 -11 -57 -56 -107 -99 -49 -44 -135 -122 -190 -174 -101 -96
-202 -178 -210 -171 -2 2 1 22 6 44 5 22 23 105 40 185 55 253 142 453 305
702 79 121 93 137 226 269 102 101 107 107 90 123 -10 9 -22 16 -26 16 -5 0
-56 -48 -113 -107z"/>
<path d="M4347 3983 c-18 -5 -17 -6 4 -29 12 -13 26 -21 32 -17 5 3 -1 12 -14
20 l-24 14 29 -6 c26 -5 27 -4 13 10 -9 8 -17 14 -19 14 -2 -1 -11 -3 -21 -6z"/>
<path d="M5404 3945 c3 -14 0 -25 -6 -25 -5 0 -8 6 -5 14 3 8 -1 17 -9 20 -11
4 -13 -2 -9 -28 3 -18 1 -45 -5 -60 -6 -16 -6 -25 0 -21 11 7 49 -13 66 -35 7
-8 16 -12 20 -8 10 11 -15 38 -36 38 -20 0 -30 27 -20 55 7 19 7 19 14 -2 4
-13 4 -27 1 -33 -9 -14 1 -13 37 6 24 12 28 18 17 25 -21 13 -29 11 -23 -6 4
-8 2 -15 -4 -15 -5 0 -12 14 -16 30 -3 17 -7 33 -8 38 -2 4 6 7 16 7 32 0 28
20 -4 22 -27 2 -30 0 -26 -22z"/>
<path d="M4473 3919 c22 -13 13 -29 -16 -30 -21 0 -21 -1 -2 -8 11 -5 24 -6
29 -3 4 2 5 -5 2 -16 -4 -11 -2 -23 4 -27 7 -4 10 0 8 11 -2 13 3 19 19 19 12
0 25 3 29 8 4 4 -7 7 -24 7 -18 0 -32 5 -32 10 0 6 3 9 8 9 18 -3 32 2 32 12
0 6 -7 9 -15 5 -8 -3 -15 -2 -15 2 0 4 -10 8 -22 9 -20 2 -21 1 -5 -8z"/>
<path d="M4396 3908 c3 -5 10 -6 15 -3 13 9 11 12 -6 12 -8 0 -12 -4 -9 -9z"/>
<path d="M4758 3913 c-9 -2 -19 -11 -22 -19 -6 -16 9 -20 19 -4 3 5 11 8 18 6
7 -1 9 -1 4 1 -4 3 -5 9 -1 14 3 5 4 8 2 8 -2 -1 -10 -3 -20 -6z"/>
<path d="M4825 3893 c-5 -10 -7 -22 -6 -26 0 -4 -6 -10 -14 -13 -22 -9 -18
-23 5 -21 12 1 18 7 16 14 -3 7 0 13 7 13 8 0 6 4 -3 10 -13 8 -13 10 2 10 9
0 19 -8 21 -17 3 -10 4 -5 3 11 -3 35 -20 45 -31 19z"/>
<path d="M4580 3870 c-12 -8 -9 -10 13 -10 15 0 27 5 27 10 0 13 -20 13 -40 0z"/>
<path d="M5260 3860 c0 -11 4 -20 8 -20 4 0 8 9 8 20 0 11 -4 20 -8 20 -4 0
-8 -9 -8 -20z"/>
<path d="M5500 3870 c12 -8 12 -12 2 -18 -9 -6 -7 -13 8 -30 12 -13 16 -22 9
-22 -7 0 -10 -2 -7 -5 3 -3 13 -3 22 1 16 6 15 9 -4 29 -15 16 -18 25 -10 30
9 6 9 10 -1 16 -8 5 -18 9 -24 9 -5 0 -3 -5 5 -10z"/>
<path d="M5540 3869 c0 -5 5 -7 10 -4 6 3 10 2 10 -4 0 -5 -6 -11 -12 -14 -10
-4 -10 -7 0 -18 10 -10 14 -11 25 0 10 10 8 11 -8 5 -18 -7 -18 -6 -7 9 8 9
11 21 7 27 -8 13 -25 13 -25 -1z"/>
<path d="M4765 3860 c-3 -5 -2 -10 4 -10 5 0 13 5 16 10 3 6 2 10 -4 10 -5 0
-13 -4 -16 -10z"/>
<path d="M4723 3845 c0 -18 19 -15 25 3 2 7 -3 12 -10 12 -8 0 -15 -7 -15 -15z"/>
<path d="M5320 3851 c0 -6 5 -11 11 -11 8 0 8 -5 -1 -15 -13 -15 -35 -11 -25
6 4 5 1 9 -4 9 -6 0 -11 -7 -11 -15 0 -8 5 -15 11 -15 6 0 9 -6 6 -14 -3 -8 1
-20 10 -28 14 -11 15 -10 9 10 -5 16 -3 24 8 28 20 8 20 28 1 44 -10 9 -15 9
-15 1z"/>
<path d="M4530 3840 c0 -5 5 -10 10 -10 6 0 10 5 10 10 0 6 -4 10 -10 10 -5 0
-10 -4 -10 -10z"/>
<path d="M5450 3846 c0 -2 7 -6 15 -10 8 -3 15 -1 15 4 0 6 -7 10 -15 10 -8 0
-15 -2 -15 -4z"/>
<path d="M4860 3830 c-8 -5 -11 -12 -7 -16 4 -4 13 -2 19 4 15 15 7 24 -12 12z"/>
<path d="M4560 3819 c0 -5 5 -7 10 -4 6 3 10 8 10 11 0 2 -4 4 -10 4 -5 0 -10
-5 -10 -11z"/>
<path d="M4538 3798 c12 -12 24 -19 28 -15 3 3 -1 13 -9 22 -9 8 -21 15 -29
15 -7 0 -4 -9 10 -22z"/>
<path d="M4665 3810 c-3 -5 -1 -10 4 -10 6 0 11 5 11 10 0 6 -2 10 -4 10 -3 0
-8 -4 -11 -10z"/>
<path d="M4710 3809 c0 -5 5 -7 10 -4 6 3 10 8 10 11 0 2 -4 4 -10 4 -5 0 -10
-5 -10 -11z"/>
<path d="M5367 3813 c-10 -10 -8 -23 4 -23 5 0 7 5 3 12 -5 8 -2 9 10 5 10 -4
15 -3 11 3 -7 12 -19 13 -28 3z"/>
<path d="M4755 3800 c-3 -5 -1 -10 4 -10 6 0 11 5 11 10 0 6 -2 10 -4 10 -3 0
-8 -4 -11 -10z"/>
<path d="M5411 3784 c0 -11 3 -14 6 -6 3 7 2 16 -1 19 -3 4 -6 -2 -5 -13z"/>
<path d="M4837 3783 c-4 -3 -7 -11 -7 -17 0 -6 5 -5 12 2 6 6 9 14 7 17 -3 3
-9 2 -12 -2z"/>
<path d="M5160 3780 c0 -5 5 -10 10 -10 6 0 10 5 10 10 0 6 -4 10 -10 10 -5 0
-10 -4 -10 -10z"/>
<path d="M5442 3765 c15 -16 20 -17 30 -6 11 11 10 13 0 7 -7 -4 -21 -2 -30 5
-15 12 -15 11 0 -6z"/>
<path d="M5350 3760 c0 -5 5 -10 11 -10 5 0 7 5 4 10 -3 6 -8 10 -11 10 -2 0
-4 -4 -4 -10z"/>
<path d="M5380 3766 c0 -2 7 -7 16 -10 8 -3 12 -2 9 4 -6 10 -25 14 -25 6z"/>
<path d="M4900 3751 c0 -6 4 -13 10 -16 6 -3 7 1 4 9 -7 18 -14 21 -14 7z"/>
<path d="M5155 3750 c3 -5 8 -10 11 -10 2 0 4 5 4 10 0 6 -5 10 -11 10 -5 0
-7 -4 -4 -10z"/>
<path d="M4650 3730 c0 -5 5 -10 11 -10 5 0 7 5 4 10 -3 6 -8 10 -11 10 -2 0
-4 -4 -4 -10z"/>
<path d="M4710 3723 c0 -11 3 -14 8 -7 4 6 14 14 22 17 10 4 8 6 -7 6 -16 1
-23 -5 -23 -16z"/>
<path d="M4786 3727 c3 -10 9 -15 12 -12 3 3 0 11 -7 18 -10 9 -11 8 -5 -6z"/>
<path d="M4850 3729 c0 -5 5 -7 10 -4 6 3 10 8 10 11 0 2 -4 4 -10 4 -5 0 -10
-5 -10 -11z"/>
<path d="M4915 3700 c-3 -5 -1 -10 4 -10 6 0 11 5 11 10 0 6 -2 10 -4 10 -3 0
-8 -4 -11 -10z"/>
<path d="M4748 3673 c7 -3 16 -2 19 1 4 3 -2 6 -13 5 -11 0 -14 -3 -6 -6z"/>
<path d="M5116 3664 c-9 -23 -4 -24 17 -2 13 14 14 18 3 18 -8 0 -17 -7 -20
-16z"/>
<path d="M4780 3660 c-9 -6 -10 -10 -3 -10 6 0 15 5 18 10 8 12 4 12 -15 0z"/>
<path d="M5096 3615 c-3 -9 0 -15 9 -15 16 0 20 16 6 24 -5 3 -11 -1 -15 -9z"/>
<path d="M4886 2960 c-4 -25 -8 -593 -9 -1262 -1 -906 1 -1219 9 -1222 7 -3
20 -3 30 -2 18 3 19 42 19 1217 0 1107 -2 1217 -17 1249 -9 19 -18 42 -21 50
-2 8 -7 -5 -11 -30z"/>
<path d="M5701 2927 c-11 -14 -18 -828 -7 -846 7 -11 116 -75 241 -141 125
-66 201 -108 240 -132 55 -33 70 -28 335 117 271 147 254 135 261 186 3 24 7
214 8 422 2 320 0 380 -13 392 -21 21 -1047 23 -1065 2z m1019 -132 l0 -85
-487 2 -488 3 -3 83 -3 82 491 0 490 0 0 -85z m0 -417 l0 -283 -148 -74 c-81
-41 -190 -98 -244 -128 l-96 -53 -238 130 c-131 72 -239 132 -241 133 -5 6
-13 539 -8 547 4 6 192 10 491 10 l484 0 0 -282z"/>
<path d="M5189 2444 c-1 -67 -4 -108 -8 -94 -4 14 -7 -155 -7 -375 1 -220 3
-339 6 -265 6 127 6 123 6 -60 0 -108 -2 -168 -6 -135 -4 38 -8 -22 -10 -165
-3 -124 -1 -250 3 -280 6 -46 16 -359 17 -544 0 -27 3 -47 6 -43 8 7 5 661 -2
685 -5 14 -4 14 4 2 8 -10 10 202 7 684 -2 384 -6 701 -9 704 -3 3 -6 -48 -7
-114z"/>
<path d="M5014 2395 c-28 -19 -48 -69 -40 -100 17 -66 98 -88 153 -41 61 52
21 156 -60 156 -18 0 -42 -7 -53 -15z"/>
<path d="M2160 2316 c47 -47 90 -84 97 -82 7 3 10 0 8 -7 -2 -7 17 -29 43 -50
26 -20 48 -33 50 -27 2 5 12 10 23 10 24 0 25 27 2 33 -11 3 -5 5 12 6 42 1
35 6 -145 103 -30 17 -62 35 -70 42 -8 6 -35 22 -60 35 -44 23 -43 21 40 -63z"/>
<path d="M7930 2366 c-30 -18 -80 -45 -110 -62 -30 -16 -89 -50 -130 -76 -41
-27 -81 -48 -87 -48 -7 0 -13 -4 -13 -10 0 -5 -6 -10 -13 -10 -7 0 -22 -8 -33
-17 -10 -10 -47 -31 -81 -47 -35 -16 -63 -33 -63 -38 0 -4 15 2 34 13 41 24
86 18 86 -12 0 -14 7 -19 28 -18 23 2 24 2 5 6 -35 7 -29 33 7 33 25 0 30 -4
30 -25 0 -14 3 -25 8 -25 16 1 106 93 95 97 -7 3 -13 9 -13 14 0 6 7 6 19 0
16 -9 38 8 158 124 76 74 136 134 133 134 -3 0 -30 -14 -60 -33z m-307 -280
c4 -10 1 -13 -8 -9 -8 3 -12 9 -9 14 7 12 11 11 17 -5z"/>
<path d="M2528 2123 c6 -2 18 -2 25 0 6 3 1 5 -13 5 -14 0 -19 -2 -12 -5z"/>
<path d="M2386 2107 c3 -10 9 -15 12 -12 3 3 0 11 -7 18 -10 9 -11 8 -5 -6z"/>
<path d="M2637 2079 c7 -7 15 -10 18 -7 3 3 -2 9 -12 12 -14 6 -15 5 -6 -5z"/>
<path d="M2420 2076 c0 -2 7 -9 15 -16 9 -7 15 -8 15 -2 0 5 -7 12 -15 16 -8
3 -15 4 -15 2z"/>
<path d="M2548 1993 c7 -3 16 -2 19 1 4 3 -2 6 -13 5 -11 0 -14 -3 -6 -6z"/>
<path d="M7520 1980 c0 -5 4 -10 9 -10 6 0 13 5 16 10 3 6 -1 10 -9 10 -9 0
-16 -4 -16 -10z"/>
<path d="M7450 1909 c0 -5 5 -7 10 -4 6 3 10 8 10 11 0 2 -4 4 -10 4 -5 0 -10
-5 -10 -11z"/>
<path d="M8242 1540 c0 -14 2 -19 5 -12 2 6 2 18 0 25 -3 6 -5 1 -5 -13z"/>
<path d="M5023 1310 c-26 -11 -53 -59 -53 -95 0 -37 50 -85 89 -85 47 0 91 45
93 94 1 32 -4 44 -30 68 -33 29 -60 34 -99 18z"/>
<path d="M7570 1305 c-1 -5 -3 -27 -4 -48 -1 -23 -11 -46 -24 -59 -20 -21 -32
-22 -224 -25 -221 -4 -284 -13 -91 -13 83 0 134 -5 166 -16 96 -33 127 -119
66 -188 -37 -42 -36 -42 -294 -56 -525 -28 -528 -28 -882 -141 -69 -23 -133
-42 -142 -44 -63 -15 -417 -132 -508 -169 -186 -75 -187 -75 -60 -76 84 0 127
5 200 25 210 57 329 90 462 126 289 80 523 137 610 148 129 17 469 17 505 1 5
-2 34 -5 88 -8 13 -1 20 -7 17 -12 -4 -6 -11 -8 -16 -5 -5 4 -5 -4 1 -19 12
-32 1 -39 -39 -25 -17 6 -36 9 -43 6 -7 -3 -3 -6 10 -6 12 -1 22 -5 22 -11 0
-5 7 -7 15 -4 8 4 15 2 15 -3 0 -5 7 -10 15 -10 8 0 12 4 9 8 -8 14 15 20 37
9 11 -7 23 -9 26 -6 4 3 -8 11 -25 17 -35 12 -39 21 -17 39 11 9 24 8 64 -7
46 -17 48 -20 35 -38 -14 -19 -14 -19 -15 1 0 13 -2 15 -6 5 -3 -8 -18 -25
-32 -37 -31 -28 -19 -30 45 -8 29 10 60 13 82 9 24 -4 38 -2 43 7 7 11 9 11 9
0 0 -7 5 -10 12 -6 7 5 8 3 3 -6 -5 -8 -1 -18 10 -27 11 -7 13 -13 7 -13 -7 0
-12 -5 -12 -11 0 -6 9 -8 20 -4 17 5 20 2 19 -22 -1 -19 -3 -22 -6 -8 -3 17
-11 20 -51 17 -57 -3 -86 12 -60 31 11 9 14 18 7 28 -7 12 -9 12 -9 -1 0 -10
-3 -11 -8 -3 -4 6 -19 9 -33 6 -20 -4 -25 -9 -22 -24 6 -22 19 -25 26 -6 4 8
6 7 6 -3 1 -15 29 -38 64 -52 11 -5 16 -4 12 2 -3 6 -1 10 4 10 6 0 11 -6 11
-12 1 -16 127 -94 143 -89 7 2 44 3 82 2 70 -1 70 -1 48 18 -26 22 -29 31 -9
31 8 0 16 -7 19 -15 8 -19 71 -45 112 -45 42 0 70 29 102 106 14 32 37 71 51
87 l26 27 -40 41 c-142 147 -400 282 -628 328 -105 21 -120 38 -63 71 37 22
67 72 67 112 -1 23 -28 82 -30 63z m30 -610 c-7 -8 -17 -15 -22 -15 -6 0 -5 7
2 15 7 8 17 15 22 15 6 0 5 -7 -2 -15z m60 -5 c11 -8 9 -9 -12 -8 -16 1 -28 6
-28 10 0 11 22 10 40 -2z m90 -46 c0 -2 -7 -4 -15 -4 -8 0 -15 4 -15 10 0 5 7
7 15 4 8 -4 15 -8 15 -10z m30 -19 c4 3 6 -3 3 -14 -4 -14 1 -18 21 -18 15 0
23 4 19 10 -3 6 -1 7 5 3 6 -4 8 -14 5 -22 -5 -13 -2 -14 13 -7 21 11 44 7 44
-9 0 -6 -17 -8 -40 -6 -22 2 -42 -1 -45 -7 -3 -5 -2 1 1 15 5 24 4 24 -10 6
-20 -25 -29 -15 -32 32 0 20 1 31 3 24 3 -6 8 -10 13 -7z m125 -105 c3 -5 -1
-10 -10 -10 -9 0 -13 5 -10 10 3 6 8 10 10 10 2 0 7 -4 10 -10z m-108 -6 c-3
-3 -12 -4 -19 -1 -8 3 -5 6 6 6 11 1 17 -2 13 -5z m40 -20 c-3 -3 -12 -4 -19
-1 -8 3 -5 6 6 6 11 1 17 -2 13 -5z"/>
<path d="M2615 1085 c-220 -33 -469 -122 -592 -212 -17 -13 -35 -23 -39 -23
-4 0 -21 -10 -38 -23 -17 -13 -39 -26 -48 -30 -10 -3 -18 -13 -18 -22 0 -8 -4
-15 -10 -15 -5 0 -20 -16 -34 -36 -20 -29 -25 -32 -28 -17 -2 11 -6 14 -10 7
-4 -6 8 -28 26 -49 18 -20 39 -56 46 -79 6 -22 22 -58 36 -78 l24 -37 142 5
c79 3 151 5 161 5 15 0 16 2 2 15 -8 9 -15 18 -15 22 0 3 5 1 12 -6 16 -16 47
-15 54 1 3 8 10 14 17 14 17 0 145 71 153 85 4 7 2 8 -4 4 -7 -4 -12 -1 -12 8
0 20 16 21 27 1 8 -13 14 -13 51 1 23 10 42 21 42 26 0 5 4 7 9 3 5 -3 12 4
16 15 3 11 15 20 26 20 11 0 19 7 19 16 0 9 -7 14 -17 13 -10 -1 -26 2 -37 6
-11 5 -21 3 -26 -5 -5 -9 -9 -9 -14 -1 -4 6 1 14 11 17 10 3 28 10 40 14 17 7
23 5 26 -8 4 -15 5 -15 6 -1 1 22 84 36 256 45 212 10 368 -7 600 -66 203 -51
464 -122 610 -165 234 -70 311 -85 417 -84 l103 0 -48 24 c-98 49 -434 163
-777 264 -173 51 -243 72 -275 82 -64 21 -255 58 -353 69 -58 7 -183 11 -286
9 l-183 -4 40 23 c49 27 229 86 315 103 35 6 60 15 55 19 -31 28 -350 45 -478
25z m-64 -385 c13 7 19 7 19 0 0 -5 -4 -10 -10 -10 -5 0 -10 -9 -10 -20 0 -11
-7 -20 -15 -20 -9 0 -15 7 -13 16 2 10 -3 19 -11 22 -10 3 -13 -2 -9 -21 3
-16 0 -28 -8 -31 -8 -3 -13 0 -11 7 1 7 -4 11 -11 9 -8 -1 -11 2 -7 8 3 6 11
8 16 5 5 -4 9 3 9 14 0 19 32 35 38 19 2 -4 12 -3 23 2z m-105 -17 c-1 -20
-14 -33 -33 -33 -18 0 -8 33 13 41 10 4 20 8 20 8 1 1 1 -7 0 -16z m-63 -17
c4 -10 1 -13 -9 -9 -7 3 -14 9 -14 14 0 14 17 10 23 -5z m-40 -38 c3 -10 1
-18 -4 -18 -4 0 -13 8 -18 18 -7 14 -6 19 4 19 7 0 16 -9 18 -19z m-40 5 c11
-11 -30 -33 -48 -26 -15 5 -14 8 6 19 28 15 33 16 42 7z m77 -57 c-18 -18 -34
8 -19 35 l12 23 9 -24 c5 -15 5 -27 -2 -34z m40 29 c0 -12 -19 -12 -23 0 -4 9
-1 12 9 8 7 -3 14 -7 14 -8z m-190 -12 c-1 -18 -18 -35 -24 -24 -4 6 -4 16 -1
21 7 12 25 13 25 3z m40 -14 c0 -5 -4 -9 -10 -9 -5 0 -10 7 -10 16 0 8 5 12
10 9 6 -3 10 -10 10 -16z m65 0 c-1 -10 -5 -22 -10 -26 -4 -5 -5 -3 -1 4 3 6
2 14 -4 18 -5 3 -10 1 -10 -4 0 -6 -5 -11 -10 -11 -6 0 -6 7 1 18 15 24 36 24
34 1z m-50 -31 c7 -7 2 -8 -15 -3 -14 4 -29 12 -35 17 -7 7 -2 8 15 3 14 -4
30 -12 35 -17z m-115 -18 c0 -5 -2 -10 -4 -10 -3 0 -8 5 -11 10 -3 6 -1 10 4
10 6 0 11 -4 11 -10z"/>
<path d="M1757 799 c4 -13 8 -18 11 -10 2 7 -1 18 -6 23 -8 8 -9 4 -5 -13z"/>
<path d="M1775 769 c-4 -6 -5 -12 -2 -15 2 -3 7 2 10 11 7 17 1 20 -8 4z"/>
<path d="M2676 739 c4 -8 -1 -9 -15 -4 -12 4 -21 2 -21 -4 0 -6 9 -11 19 -11
11 0 21 -3 24 -7 2 -5 2 -3 1 4 -2 6 2 13 9 16 6 2 3 6 -7 10 -11 4 -15 3 -10
-4z"/>
<path d="M7320 747 c0 -2 6 -10 14 -16 11 -9 16 -9 22 1 4 7 4 10 -1 6 -4 -4
-14 -3 -22 3 -7 6 -13 9 -13 6z"/>
<path d="M7377 733 c-3 -5 6 -8 19 -8 13 0 24 3 24 8 0 4 -9 7 -19 7 -11 0
-22 -3 -24 -7z"/>
<path d="M7515 700 c3 -5 8 -10 11 -10 2 0 4 5 4 10 0 6 -5 10 -11 10 -5 0 -7
-4 -4 -10z"/>
<path d="M2640 690 c0 -5 5 -10 11 -10 5 0 7 5 4 10 -3 6 -8 10 -11 10 -2 0
-4 -4 -4 -10z"/>
<path d="M7681 643 c-1 -14 -7 -23 -17 -23 -8 0 -12 -4 -9 -10 3 -5 15 -10 26
-10 11 0 17 5 14 10 -3 6 0 10 7 10 9 0 9 3 2 8 -6 4 -14 14 -17 22 -4 10 -6
8 -6 -7z"/>
<path d="M7535 630 c3 -5 10 -10 16 -10 5 0 9 5 9 10 0 6 -7 10 -16 10 -8 0
-12 -4 -9 -10z"/>
</g>
</svg>
